<svg
   width="15.177736mm"
   height="12.43081mm"
   viewBox="0 0 15.177736 12.43081"
   version="1.1"
   id="svg1079"
   inkscape:version="1.1 (c68e22c387, 2021-05-23)"
   sodipodi:docname="favicon.svg"
   xmlns:inkscape="http://www.inkscape.org/namespaces/inkscape"
   xmlns:sodipodi="http://sodipodi.sourceforge.net/DTD/sodipodi-0.dtd"
   xmlns="http://www.w3.org/2000/svg"
   xmlns:svg="http://www.w3.org/2000/svg">
  <g
     inkscape:label="Layer 1"
     inkscape:groupmode="layer"
     id="layer1"
     transform="translate(-86.124724,-126.06493)">
    <path
       id="mysterymachine-path5"
       d="m 91.443224,134.42497 c 0,0 -1.722465,2.51883 -1.344908,3.23063 0.377556,0.71179 1.458877,0.96486 2.282081,0.56225 0.823203,-0.40262 1.406027,-3.79288 1.406027,-3.79288 0,0 1.111233,2.80757 2.057443,3.08616 0.946211,0.27859 2.315398,-0.12026 2.628958,-1.14303 0.313558,-1.02276 -2.28605,-3.60052 -2.28605,-3.60052 0,0 3.453283,0.22463 4.329735,-0.60221 0.87645,-0.82684 0.93157,-1.24026 0.16537,-2.01749 -0.766208,-0.77723 -5.466677,0.2765 -5.466677,0.2765 0,0 2.154182,-2.18387 1.88599,-3.08617 -0.268189,-0.9023 -1.48205,-1.4121 -2.438716,-1.09302 -0.956667,0.31908 -1.847625,3.55052 -1.847625,3.55052 0,0 -2.943514,-3.25009 -4.20485,-3.12056 -1.261335,0.12953 -1.924217,1.1539 -1.752902,2.24901 0.171314,1.0951 3.385947,2.24318 3.385947,2.24318 0,0 -3.607672,1.1684 -3.948199,2.22176 -0.340527,1.05336 0.403606,1.60055 0.826841,1.85212 q 0.423234,0.25157 4.321535,-0.81625 z"
       fill="#ff8d00"
       stroke="#000000"
       stroke-width="0.168961" />
    <path
       id="mysterymachine-ellipse3"
       d="m 92.006882,132.09776 c 0,-0.70361 0.686083,-1.09456 1.399601,-1.09456 0.713518,0 1.256052,0.37301 1.256052,1.07662 0,0.70361 -0.686083,1.07661 -1.399601,1.07661 -0.713518,0 -1.256052,-0.35506 -1.256052,-1.05867 z"
       fill="#ff8d00"
       stroke="#000000"
       stroke-width="0.169333" />
  </g>
</svg>
